<svg xmlns="http://www.w3.org/2000/svg" xmlns:xlink="http://www.w3.org/1999/xlink" width="500" zoomAndPan="magnify" viewBox="0 0 375 74.999997" height="100" preserveAspectRatio="xMidYMid meet" version="1.0"><defs><g/><clipPath id="90b23bd364"><rect x="0" width="250" y="0" height="68"/></clipPath><clipPath id="2b5f2933bc"><path d="M 44.066406 17.945312 L 68 17.945312 L 68 58.445312 L 44.066406 58.445312 Z M 44.066406 17.945312 " clip-rule="nonzero"/></clipPath><clipPath id="499952538d"><path d="M 66 17.945312 L 81.566406 17.945312 L 81.566406 41 L 66 41 Z M 66 17.945312 " clip-rule="nonzero"/></clipPath></defs><rect x="-37.5" width="450" fill="#ffffff" y="-7.5" height="89.999996" fill-opacity="1"/><rect x="-37.5" width="450" fill="#ffffff" y="-7.5" height="89.999996" fill-opacity="1"/><g transform="matrix(1, 0, 0, 1, 87, 3)"><g clip-path="url(#90b23bd364)"><g fill="#000000" fill-opacity="1"><g transform="translate(0.30841, 53.477032)"><g><path d="M 34.28125 -7.125 L 34.28125 0 L 4.546875 0 L 4.546875 -38.40625 L 33.578125 -38.40625 L 33.578125 -31.265625 L 13.390625 -31.265625 L 13.390625 -22.9375 L 31.21875 -22.9375 L 31.21875 -16.015625 L 13.390625 -16.015625 L 13.390625 -7.125 Z M 34.28125 -7.125 "/></g></g></g><g fill="#000000" fill-opacity="1"><g transform="translate(45.342495, 53.477032)"><g><path d="M 29.015625 0 L 21.609375 -10.703125 L 13.4375 -10.703125 L 13.4375 0 L 4.546875 0 L 4.546875 -38.40625 L 21.171875 -38.40625 C 24.578125 -38.40625 27.53125 -37.835938 30.03125 -36.703125 C 32.539062 -35.566406 34.472656 -33.957031 35.828125 -31.875 C 37.179688 -29.789062 37.859375 -27.320312 37.859375 -24.46875 C 37.859375 -21.613281 37.171875 -19.148438 35.796875 -17.078125 C 34.421875 -15.015625 32.472656 -13.4375 29.953125 -12.34375 L 38.5625 0 Z M 28.859375 -24.46875 C 28.859375 -26.625 28.160156 -28.273438 26.765625 -29.421875 C 25.378906 -30.578125 23.351562 -31.15625 20.6875 -31.15625 L 13.4375 -31.15625 L 13.4375 -17.78125 L 20.6875 -17.78125 C 23.351562 -17.78125 25.378906 -18.363281 26.765625 -19.53125 C 28.160156 -20.695312 28.859375 -22.34375 28.859375 -24.46875 Z M 28.859375 -24.46875 "/></g></g></g><g fill="#000000" fill-opacity="1"><g transform="translate(93.887012, 53.477032)"><g><path d="M 4.546875 -38.40625 L 13.4375 -38.40625 L 13.4375 0 L 4.546875 0 Z M 4.546875 -38.40625 "/></g></g></g><g fill="#000000" fill-opacity="1"><g transform="translate(120.107386, 53.477032)"><g><path d="M 12.515625 -31.15625 L 0.21875 -31.15625 L 0.21875 -38.40625 L 33.6875 -38.40625 L 33.6875 -31.15625 L 21.390625 -31.15625 L 21.390625 0 L 12.515625 0 Z M 12.515625 -31.15625 "/></g></g></g><g fill="#000000" fill-opacity="1"><g transform="translate(162.2344, 53.477032)"><g><path d="M 4.546875 -38.40625 L 13.4375 -38.40625 L 13.4375 -7.234375 L 32.703125 -7.234375 L 32.703125 0 L 4.546875 0 Z M 4.546875 -38.40625 "/></g></g></g><g fill="#000000" fill-opacity="1"><g transform="translate(203.593512, 53.477032)"><g><path d="M 22.984375 -13.609375 L 22.984375 0 L 14.09375 0 L 14.09375 -13.71875 L -0.765625 -38.40625 L 8.671875 -38.40625 L 18.921875 -21.34375 L 29.1875 -38.40625 L 37.90625 -38.40625 Z M 22.984375 -13.609375 "/></g></g></g></g></g><g clip-path="url(#2b5f2933bc)"><path fill="#0066ff" d="M 63.109375 58.398438 L 62.488281 58.398438 L 44.066406 17.945312 L 53.898438 17.945312 L 59.5 30.890625 L 59.4375 30.953125 L 67.28125 49.1875 Z M 63.109375 58.398438 " fill-opacity="1" fill-rule="evenodd"/></g><g clip-path="url(#499952538d)"><path fill="#09090b" d="M 66.84375 30.703125 L 72.382812 17.945312 L 81.53125 17.945312 L 71.140625 40.722656 Z M 66.84375 30.703125 " fill-opacity="1" fill-rule="evenodd"/></g></svg>